<svg id="Layer_1" data-name="Layer 1" xmlns="http://www.w3.org/2000/svg" xmlns:xlink="http://www.w3.org/1999/xlink" viewBox="0 0 841.89 595.28"><defs><style>.cls-1{fill:url(#linear-gradient);}.cls-2{fill:url(#linear-gradient-2);}.cls-3{fill:url(#linear-gradient-3);}.cls-4{fill:url(#linear-gradient-4);}.cls-5{fill:url(#linear-gradient-5);}.cls-32,.cls-33,.cls-35,.cls-6{fill:none;}.cls-6{stroke:#fff;}.cls-32,.cls-33,.cls-34,.cls-35,.cls-6{stroke-miterlimit:10;}.cls-33,.cls-6{stroke-width:2px;}.cls-7,.cls-8{fill:#fff;}.cls-14,.cls-15,.cls-16,.cls-7{opacity:0.3;}.cls-9{fill:url(#linear-gradient-6);}.cls-10{fill:#df85b9;}.cls-11{fill:#e087ba;}.cls-12{fill:#e59fc9;}.cls-13,.cls-18,.cls-20,.cls-34,.cls-36{fill:#2a1000;}.cls-14{fill:#99212c;}.cls-15,.cls-29{fill:#e6a14c;}.cls-16{fill:#d33592;}.cls-17{fill:#2d4b9f;}.cls-18{font-size:34.99px;}.cls-18,.cls-20,.cls-36{font-family:Baloo-Regular, Baloo;}.cls-19{letter-spacing:-0.03em;}.cls-20{font-size:12px;}.cls-21{letter-spacing:-0.02em;}.cls-22{letter-spacing:-0.01em;}.cls-23{letter-spacing:0em;}.cls-24{letter-spacing:-0.02em;}.cls-25{letter-spacing:-0.01em;}.cls-26{fill:#8ac058;}.cls-27{fill:#e7a8ce;}.cls-28{fill:#e8aad0;}.cls-30{fill:#664198;}.cls-31{fill:#d13d3a;}.cls-32,.cls-33,.cls-34,.cls-35{stroke:#2a1000;}.cls-35{stroke-width:0.75px;}.cls-36{font-size:11.76px;letter-spacing:-0.01em;}.cls-37{fill:#5db05c;}.cls-38{fill:#cf2e2e;}</style><linearGradient id="linear-gradient" x1="418.03" y1="25.09" x2="423.7" y2="472.51" gradientUnits="userSpaceOnUse"><stop offset="0" stop-color="#88cbcb"/><stop offset="0.2" stop-color="#82c4ca"/><stop offset="0.48" stop-color="#6fb1c9"/><stop offset="0.81" stop-color="#5293c6"/><stop offset="0.96" stop-color="#4282c4"/></linearGradient><linearGradient id="linear-gradient-2" x1="419.17" y1="413.13" x2="421.66" y2="609.82" gradientUnits="userSpaceOnUse"><stop offset="0.51" stop-color="#5d3718"/><stop offset="0.6" stop-color="#633e1e"/><stop offset="0.73" stop-color="#755130"/><stop offset="0.88" stop-color="#926f4d"/><stop offset="1" stop-color="#ad8c68"/></linearGradient><linearGradient id="linear-gradient-3" x1="153.57" y1="266.59" x2="162.75" y2="536.58" gradientUnits="userSpaceOnUse"><stop offset="0.38" stop-color="#476a00"/><stop offset="0.47" stop-color="#426300"/><stop offset="0.61" stop-color="#365000"/><stop offset="0.76" stop-color="#213200"/><stop offset="0.93" stop-color="#050700"/><stop offset="0.96"/></linearGradient><linearGradient id="linear-gradient-4" x1="75.33" y1="275.16" x2="50.96" y2="538.8" gradientUnits="userSpaceOnUse"><stop offset="0.38" stop-color="#658c34"/><stop offset="0.45" stop-color="#608531"/><stop offset="0.55" stop-color="#53722a"/><stop offset="0.67" stop-color="#3c531f"/><stop offset="0.8" stop-color="#1d290f"/><stop offset="0.91"/></linearGradient><linearGradient id="linear-gradient-5" x1="110.98" y1="409.55" x2="107.76" y2="512.43" gradientUnits="userSpaceOnUse"><stop offset="0" stop-color="#8ac058"/><stop offset="0.14" stop-color="#7bab4e"/><stop offset="0.44" stop-color="#547536"/><stop offset="0.86" stop-color="#161e0e"/><stop offset="1"/></linearGradient><linearGradient id="linear-gradient-6" x1="523.95" y1="93.31" x2="710.09" y2="492.34" gradientUnits="userSpaceOnUse"><stop offset="0" stop-color="#d34d3a"/><stop offset="0.12" stop-color="#d5543a"/><stop offset="0.29" stop-color="#da673b"/><stop offset="0.49" stop-color="#e2863d"/><stop offset="0.72" stop-color="#eeb13f"/><stop offset="0.96" stop-color="#fce742"/><stop offset="1" stop-color="#fff142"/></linearGradient></defs><rect class="cls-1" x="-0.67" y="-0.79" width="843.23" height="511.27"/><rect class="cls-2" x="-0.71" y="511.01" width="843.32" height="85.06"/><text/><path class="cls-3" d="M203.42,510.48c-9.7-8.78-23.51-23.39-31.1-43.12-19.45-50.55,19.81-88.24,32.45-130.17,10.3-34.17,7.58-86.55-61.05-160.85,14.43,23.44,70.56,121.15,1.55,190.6-6.37,6.42-16.53,10.22-23.43,19.09-11.14,14.33-10.21,27.35-10.21,27.35l-6.51,27,4.65,42.76v27.38"/><path class="cls-4" d="M20.9,510.48c16.24-22.54,34.84-56.24,35.6-97.62C57.46,360.36,29,333.05,15,287,2.63,246.56-.4,186,41.94,98.32,2.08,208.5,30.86,278,66.21,321.7c59.24,73.22,69.11,98.07,66.35,128.22-1.28,14-8,35.74-37.66,60.51"/><path class="cls-5" d="M166.47,510.48C153.3,499,135.35,480,124.64,452.42c-29.2-75.23,32.25-119.86,12.09-200.79-15.58-62.52-62-74.95-57.64-129.21,2.49-30.95,19.84-54.91,33.47-69.88C88.2,75.48,59.72,110.26,60.5,152.17c1,53,47.68,63.56,53,119,5.9,61.62-48.44,83.67-47.41,157.1.49,35,13.29,63.47,24.17,82.23"/><ellipse class="cls-6" cx="174.74" cy="71.03" rx="29.07" ry="30.1"/><ellipse class="cls-6" cx="193.64" cy="149.14" rx="11.27" ry="11.67"/><ellipse class="cls-6" cx="228.22" cy="106.65" rx="15.3" ry="15.85"/><circle class="cls-6" cx="782.2" cy="338.76" r="23.79"/><circle class="cls-6" cx="766.73" cy="277.04" r="9.23"/><circle class="cls-6" cx="738.43" cy="310.61" r="12.52"/><ellipse class="cls-6" cx="294.67" cy="399.09" rx="17.15" ry="16.72"/><ellipse class="cls-6" cx="250.17" cy="409.96" rx="6.65" ry="6.48"/><ellipse class="cls-6" cx="274.38" cy="429.85" rx="9.03" ry="8.8"/><path class="cls-7" d="M695.92,262.9c-2.55-.8,29-56.71,14.92-118.26-2.15-9.4-14.52-59-57.09-85.63-46-28.72-105.69-17.11-105.61-20.94,0-1.82,13.5-4.48,23.43-5,.85,0,2.25-.12,4.1-.2,66.86-2.73,101.63,25.7,101.63,25.7,36.65,29,42.33,73.78,43.76,85,3.06,24.09-1.23,43.9-5.63,64.21C708.72,238.7,697.59,263.42,695.92,262.9Z"/><rect class="cls-8" x="233.38" y="141.03" width="345.42" height="326.75" rx="30.8"/><path class="cls-9" d="M670.43,129.66c18.22,29.77,22.3,62.67,24.89,83.56,3.49,28.08-.29,35.58,0,88.89.26,46.74.38,70.12,4.93,88.48,15.72,63.47,61.09,92.26,54.63,100-6.8,8.13-67-11.89-104-62.23C609.44,372,636.19,339.43,592.2,288.78c-25.75-29.66-56-48-94.46-69.34-6.24-3.45-11.38-6.15-14.61-7.83,7.7,1,32.7,3.23,54.55-12.65,23.25-16.89,31.68-46.11,28.47-48.23-2.53-1.66-10.39,14.63-30,27.68-25.22,16.73-70.42,28.48-96,5.83-19-16.83-17.82-44.43-17.73-46,2.33-41.21,48.88-73.1,87.12-82.35C573.72,40.35,641,81.48,670.43,129.66Z"/><path class="cls-10" d="M838.92,510.09c-6,9.17-51.32-17.89-61.15-5.14-8.86,11.49,20.67,43,15.37,47.81-5.07,4.65-45.78-11.9-45.78-42.67,0-23.56,20.5-42.67,45.78-42.67C823.66,467.42,843.86,502.52,838.92,510.09Z"/><path class="cls-11" d="M695.92,262.9c-7.08,0,.66-118.51-55.95-169.69C617.24,72.66,589.3,62.1,589.3,62.1c-11.9-4.5-28.72-10.86-50.67-9.78-16.14.79-28.5,5.28-29.1,3.56-.74-2.15,17.81-10.82,26.43-14.23,35.13-13.88,98.93-17,141.34,16.89C755.38,120.93,703.67,262.94,695.92,262.9Z"/><path class="cls-12" d="M573.3,209.66s5.19,20.45-12.45,34.67c-12.68,10.23-54,36.48-40,28.1h0a9.44,9.44,0,0,0-3.42,2.24c-2.17,2.25-1.76,5.45-2.8,7.89-5.34,12.44,8,40.89,13.33,40.89s-2.3,1.78,15.74,0S574,305.67,574,305.67s15.5-17.78,15-27.56c-.94-16.7,9-29.5,10.12-40"/><ellipse class="cls-8" cx="513.39" cy="111.08" rx="27.61" ry="12.76"/><ellipse class="cls-13" cx="507.55" cy="111.3" rx="10.14" ry="5.91"/><path class="cls-14" d="M652.8,357.77c5.18,16.08,1.31,17.26,5.87,35.69,13.32,53.78,56,83.23,52.92,86.57-2.12,2.27-22.42-10.74-40.16-28.6-9.45-9.52-31.86-32.61-43.35-69.08-7.62-24.21-2.57-29.36-12.39-53.13-11.2-27.13-25.33-38.71-23.49-40.44C595.21,286,638.05,311.92,652.8,357.77Z"/><path class="cls-15" d="M695.43,280.71C687.85,281.88,695,158,615.69,97.06,567.47,60,508.48,62.57,509.53,55.88c.93-5.87,46.5-9.81,88.09,8.83a147.12,147.12,0,0,1,56.13,44.72c9.17,12,15.9,24.83,22.84,43.77C699.41,215.48,700.93,279.86,695.43,280.71Z"/><path class="cls-16" d="M830.73,512.86c.63-.95-5.61-6.86-12.79-11.75-16.3-11.11-43.48-21.11-50-13-8.18,10.16,17.36,47,18.08,48.52,0-.11-14.28-23.2-8.24-31.69,5.45-7.67,26.37-1.94,31.07-.66C821.65,507.8,830,513.9,830.73,512.86Z"/><path class="cls-17" d="M119.81,90.08a8.71,8.71,0,0,0-5.9,6.41q-1.16,4.71,1.34,11.68T122,118a9.42,9.42,0,0,0,8.91,1.1,9.9,9.9,0,0,0,4-2.43,28,28,0,0,0,2.62-3.23,8.75,8.75,0,0,1,2.61,2.13A11.32,11.32,0,0,1,142,119a7.5,7.5,0,0,1-.78,6.63q-2,3.31-7.7,5.37a20.8,20.8,0,0,1-8.31,1.25,17.76,17.76,0,0,1-8-2.46,24.72,24.72,0,0,1-7.19-6.55,40.93,40.93,0,0,1-5.77-11.14,39.63,39.63,0,0,1-2.49-11.67,26.61,26.61,0,0,1,1.21-9.61,18.44,18.44,0,0,1,4.32-7.22,18.1,18.1,0,0,1,6.9-4.4q5.67-2,9.64-.72a8,8,0,0,1,5.35,5.12,8.26,8.26,0,0,1,.51,3.93,8.51,8.51,0,0,1-1,3.09,19.4,19.4,0,0,0-4.26-1.12A9.31,9.31,0,0,0,119.81,90.08Z"/><path class="cls-17" d="M166.76,119.29a5.29,5.29,0,0,1-4.86-.92,9.39,9.39,0,0,1-3.09-5.22L147.27,70.21c.43-.23,1.13-.58,2.08-1a16,16,0,0,1,2.83-1.07,10.79,10.79,0,0,1,2.64-.4,4.28,4.28,0,0,1,2.14.54,4.76,4.76,0,0,1,1.7,1.77A13.4,13.4,0,0,1,160,73.39l8.82,32.8,14.47-3.89a14.28,14.28,0,0,1,1.48,2.23,13.83,13.83,0,0,1,1.23,3.1q.9,3.32.19,5a3.52,3.52,0,0,1-2.47,2.13Z"/><path class="cls-17" d="M195.69,66.33a9.47,9.47,0,0,1,.45-6.06,5.27,5.27,0,0,1,3.93-3L221.23,53a11.84,11.84,0,0,1,1.3,2.29,14.51,14.51,0,0,1,1,3.13c.43,2.14.38,3.72-.14,4.76a3.43,3.43,0,0,1-2.52,1.92l-13.53,2.73,1.59,7.84,14.43-2.92A12.38,12.38,0,0,1,224.64,75a13,13,0,0,1,1,3.09c.44,2.13.4,3.72-.1,4.75A3.34,3.34,0,0,1,223,84.75l-11.79,2.38L213,96l16.48-3.33a11.43,11.43,0,0,1,1.3,2.28,14.51,14.51,0,0,1,1,3.13q.65,3.21-.13,4.81a3.39,3.39,0,0,1-2.51,2l-18.72,3.79a5.3,5.3,0,0,1-4.79-1.23A9.46,9.46,0,0,1,202.9,102Z"/><path class="cls-17" d="M253,49.32a11.84,11.84,0,0,1,3.1-2.09,14.17,14.17,0,0,1,4.39-1.41,12.81,12.81,0,0,1,5.91.42,5.91,5.91,0,0,1,3.76,3.41q1.8,4.26,4,9.94t4.45,11.75q2.26,6.06,4.42,12c1.45,3.94,2.71,7.42,3.81,10.45A5.49,5.49,0,0,1,284.77,96a8.72,8.72,0,0,1-3.59,1.25,8.58,8.58,0,0,1-2.67,0,4.13,4.13,0,0,1-1.89-.77,5,5,0,0,1-1.36-1.63,17.77,17.77,0,0,1-1.11-2.45l-2-5.71L260.42,88.4c-.1,1.75-.19,3.56-.28,5.42s-.18,3.68-.28,5.43a15,15,0,0,1-1.81,1,8.71,8.71,0,0,1-2.38.64,7,7,0,0,1-5.11-.79,5.42,5.42,0,0,1-2.17-3.9,10.86,10.86,0,0,1-.08-2.42c.05-.82.12-1.79.18-2.9q.12-2.35.45-5.88t.73-7.62q.41-4.09.91-8.43c.33-2.88.65-5.61.95-8.17s.57-4.84.83-6.85S252.84,50.39,253,49.32Zm9.33,9.88q-.39,3.7-.9,8.25c-.34,3-.59,6.09-.77,9.19l8-1.15c-1-3-2.08-5.88-3.13-8.72s-2-5.37-2.84-7.63Z"/><path class="cls-17" d="M339.51,88.7A5.79,5.79,0,0,1,337,90.77a11.84,11.84,0,0,1-4.08,1,11,11,0,0,1-4.65-.54q-2.22-.75-3.92-4.22l-8-16.74q-1.22-2.57-2.2-4.85T312,60.14l-.38.12c.45,3.07.82,6.2,1.13,9.39s.59,6.34.86,9.42l1.18,13.28a13.83,13.83,0,0,1-2.14.71,16.12,16.12,0,0,1-2.88.51,10.8,10.8,0,0,1-2.56,0,3.47,3.47,0,0,1-1.92-.87,5.17,5.17,0,0,1-1.29-2,12.68,12.68,0,0,1-.7-3.43l-3.79-42.83a5.77,5.77,0,0,1,2.58-2.82,9.8,9.8,0,0,1,4-1.22,11.23,11.23,0,0,1,4.68.58c1.52.53,2.81,1.93,3.89,4.19l8,16.73q1.21,2.57,2.21,4.86T327.06,72l.32-.12q-.67-4.61-1.14-9.22t-.89-9.25l-1.23-13.88a14.43,14.43,0,0,1,2.14-.7,17.1,17.1,0,0,1,2.88-.52,6.44,6.44,0,0,1,4.48.94q1.62,1.2,2,5.4Z"/><path class="cls-17" d="M389.43,79.32a2.51,2.51,0,0,0,.72,1.94,2.71,2.71,0,0,0,1.89.53,5.52,5.52,0,0,0,1.25-.17,5.65,5.65,0,0,0,1.12-.37,7.32,7.32,0,0,1,.66,1.28,5,5,0,0,1,.31,1.71,4.71,4.71,0,0,1-1.05,3.32c-.75.87-2.08,1.33-4,1.39a7,7,0,0,1-5.52-2c-1.31-1.37-2-3.65-2.11-6.83L382,57.48a9.84,9.84,0,0,1,1.26-.39,8.7,8.7,0,0,1,1.74-.23,4.23,4.23,0,0,1,2.79.74c.67.53,1,1.68,1.08,3.44l.1,3.39,5.28-.15a10.92,10.92,0,0,1,.5,1.45,7.6,7.6,0,0,1,.28,1.93,4.45,4.45,0,0,1-.55,2.69,2,2,0,0,1-1.65.87l-3.66.1Z"/><path class="cls-17" d="M425.56,87.63a7.34,7.34,0,0,1-1.27.32,9.53,9.53,0,0,1-1.79.17,6.51,6.51,0,0,1-1.59-.15,2.36,2.36,0,0,1-1.2-.63,3.1,3.1,0,0,1-.75-1.29,7,7,0,0,1-.27-2.15l-.07-11.76a4.38,4.38,0,0,0-.85-3,2.7,2.7,0,0,0-2-.87,4.66,4.66,0,0,0-1.53.28,3.83,3.83,0,0,0-1.16.64l.1,18.55a7.34,7.34,0,0,1-1.27.32,9.45,9.45,0,0,1-1.79.17,6.51,6.51,0,0,1-1.59-.15,2.33,2.33,0,0,1-1.19-.63,3,3,0,0,1-.76-1.29,7,7,0,0,1-.27-2.15l-.18-30.73c.3-.08.73-.18,1.31-.3a8,8,0,0,1,1.75-.2,7.77,7.77,0,0,1,1.6.15,2.33,2.33,0,0,1,1.19.63,3.12,3.12,0,0,1,.75,1.29A7.38,7.38,0,0,1,413,57l0,5.19a12.06,12.06,0,0,1,1.59-.62,7.58,7.58,0,0,1,2.35-.35,7.75,7.75,0,0,1,6.25,2.58c1.5,1.74,2.26,4.35,2.28,7.81Z"/><path class="cls-17" d="M447.37,88.83a11.05,11.05,0,0,1-4.4-1,9.68,9.68,0,0,1-3.49-2.7,12.42,12.42,0,0,1-2.29-4.44,20,20,0,0,1-.75-6.22,18.71,18.71,0,0,1,1-6,12.25,12.25,0,0,1,2.36-4.08,8.71,8.71,0,0,1,3.27-2.32,9.5,9.5,0,0,1,3.73-.7,8.83,8.83,0,0,1,3.87.93,9.08,9.08,0,0,1,3,2.39,10.7,10.7,0,0,1,1.9,3.59,13.7,13.7,0,0,1,.61,4.52,4.26,4.26,0,0,1-.82,2.74,3.49,3.49,0,0,1-2.16,1.17l-10,1.76a4.17,4.17,0,0,0,1.76,2.66,5.69,5.69,0,0,0,3.13.94,8.82,8.82,0,0,0,3.13-.49,9.17,9.17,0,0,0,2.43-1.25,4.1,4.1,0,0,1,1.05,1.5,4.69,4.69,0,0,1,.41,2,4,4,0,0,1-1.77,3.52,7.56,7.56,0,0,1-2.92,1.16A15.64,15.64,0,0,1,447.37,88.83ZM446.65,68a3.26,3.26,0,0,0-1.68.39,3.75,3.75,0,0,0-1.17,1.07,5,5,0,0,0-.69,1.47,7.82,7.82,0,0,0-.3,1.66l6.92-1.35a4.37,4.37,0,0,0-.84-2.13A2.61,2.61,0,0,0,446.65,68Z"/><path class="cls-17" d="M514.89,51.87a15,15,0,0,1,2.33-.8,9.38,9.38,0,0,1,3.15-.3,9,9,0,0,1,4.47,1.45,4.47,4.47,0,0,1,2,3.32q.42,3.57.79,6.66c.24,2.07.48,4,.72,5.93s.46,3.77.68,5.62.42,3.81.6,5.84l.32,0c.69-3.45,1.31-6.75,1.88-9.9s1.11-6.23,1.62-9.27,1-6,1.54-9,1-6,1.54-9.06a8.55,8.55,0,0,1,5.3-1.37,6.61,6.61,0,0,1,4.06,1.72c1.1,1,1.55,2.6,1.37,4.77-.1,1.26-.35,3-.73,5.33s-.87,4.87-1.43,7.7-1.2,5.79-1.89,8.9-1.4,6.07-2.12,8.89-1.42,5.36-2.11,7.63a48.53,48.53,0,0,1-1.85,5.24,7,7,0,0,1-3.36,1.7,13.59,13.59,0,0,1-4.62.4,11.36,11.36,0,0,1-5.1-1.51,4.54,4.54,0,0,1-2.32-3.25c-.37-2.33-.76-5.1-1.15-8.3s-.8-6.71-1.22-10.54q-1.38,5.49-2.8,10.73c-.94,3.49-1.78,6.44-2.5,8.85a7,7,0,0,1-3.1,1.73,11.81,11.81,0,0,1-4.37.41,12.87,12.87,0,0,1-5.22-1.51,5.47,5.47,0,0,1-2.85-3.3,37.82,37.82,0,0,1-.89-4.69c-.28-2.07-.56-4.42-.82-7.06s-.52-5.49-.77-8.57-.45-6.13-.61-9.19-.29-6-.4-9-.15-5.58-.13-8a9.32,9.32,0,0,1,2.72-1.85,7.08,7.08,0,0,1,3.6-.65,5.89,5.89,0,0,1,3.95,1.76q1.49,1.55,1.6,4.92.31,8.82.51,14.71c.14,3.93.24,7.14.32,9.65s.12,4.45.13,5.84.06,2.47.12,3.29l.33,0q.87-3.37,1.64-6.25c.5-1.91,1-3.84,1.56-5.78s1.09-4,1.67-6.25S514.21,54.75,514.89,51.87Z"/><path class="cls-17" d="M575.52,47a12.06,12.06,0,0,1,3.57-1.14,14,14,0,0,1,4.61-.13,12.91,12.91,0,0,1,5.55,2,5.92,5.92,0,0,1,2.66,4.33c.36,3.06.71,6.62,1.06,10.66s.68,8.22,1,12.52.61,8.54.9,12.72.53,7.88.74,11.1a5.44,5.44,0,0,1-2.6,1.58,10.09,10.09,0,0,1-6.37-.51A4.32,4.32,0,0,1,585,98.92a5,5,0,0,1-.84-2,18.17,18.17,0,0,1-.39-2.66l-.33-6-11.72-1.66c-.59,1.65-1.18,3.36-1.79,5.13s-1.2,3.48-1.78,5.13a13.18,13.18,0,0,1-2,.45,8.62,8.62,0,0,1-2.47,0A7,7,0,0,1,559,95.09a5.45,5.45,0,0,1-1-4.35,12.1,12.1,0,0,1,.6-2.35c.29-.77.61-1.68,1-2.73q.78-2.23,2.08-5.52c.86-2.19,1.8-4.57,2.82-7.11s2.1-5.16,3.23-7.84l3.19-7.58c1-2.38,1.9-4.49,2.72-6.35S575.07,48,575.52,47Zm6.21,12.09q-1.41,3.45-3.17,7.67t-3.3,8.61l8,1.14q-.25-4.72-.57-9.24c-.21-3-.41-5.72-.6-8.12Z"/><path class="cls-17" d="M615.72,63.79a12.5,12.5,0,0,1-.33-2.69,14.61,14.61,0,0,1,.28-3.45q.65-3.3,2.06-4.51a3.6,3.6,0,0,1,3.2-.85l28,5.52a12.69,12.69,0,0,1,.33,2.7A14.1,14.1,0,0,1,649,64c-.43,2.19-1.12,3.7-2.05,4.5a3.61,3.61,0,0,1-3.21.86l-7.12-1.41-7.7,39a13.87,13.87,0,0,1-2.32.07,18.86,18.86,0,0,1-3-.33,11,11,0,0,1-2.54-.81,4.21,4.21,0,0,1-1.68-1.43,4.66,4.66,0,0,1-.74-2.34,13.43,13.43,0,0,1,.31-3.62l6.47-32.74Z"/><path class="cls-17" d="M768.23,130.67q-2-2.46-3.48-4.71a16.22,16.22,0,0,1-2.15-4.71,13.75,13.75,0,0,1-.32-5.23,19.11,19.11,0,0,1,2.06-6.14q3.31-6.51,9.12-8.48t12.69,1.53a24.93,24.93,0,0,1,4.43,2.83,12.8,12.8,0,0,1,3,3.3,7.9,7.9,0,0,1,1.18,3.68,7.71,7.71,0,0,1-.9,3.93,8.62,8.62,0,0,1-2.44,3.06,9.91,9.91,0,0,1-2.91,1.55,13.37,13.37,0,0,0-2.49-3.62,15.07,15.07,0,0,0-4.31-3.21,7,7,0,0,0-4.34-1,3.32,3.32,0,0,0-2.45,1.8,2.78,2.78,0,0,0-.2,2.26,8.23,8.23,0,0,0,1.59,2.5l2.43,2.87A24,24,0,0,1,784.17,133c.75,3.37.09,7.11-2,11.19q-3.31,6.53-9.27,8.56T759.38,151a22.75,22.75,0,0,1-4.69-3.11,14.75,14.75,0,0,1-3.17-3.73,9.14,9.14,0,0,1-1.28-4.12,8.32,8.32,0,0,1,1-4.29,7.88,7.88,0,0,1,2.92-3.29,9.42,9.42,0,0,1,3.39-1.31,17.09,17.09,0,0,0,2.51,4.94,12.4,12.4,0,0,0,4.53,3.85q2.87,1.46,4.61.9a4.12,4.12,0,0,0,2.53-2.09,3.29,3.29,0,0,0,.26-2.82,12.29,12.29,0,0,0-1.83-2.9Z"/><path class="cls-16" d="M582.39,293.48c1.16,1.71-33.27,41.07-54.43,30-17.74-9.31-14.35-47.92-10.53-48.78,3.24-.73,5.14,26.05,22.15,32.67C558.28,314.61,581.47,292.12,582.39,293.48Z"/><text class="cls-18" transform="translate(286.83 190.81) scale(0.96 1)">HOW <tspan class="cls-19" x="85.3" y="0">T</tspan><tspan x="103.85" y="0">O</tspan></text><text class="cls-20" transform="translate(275.85 217.4)">Clean the o<tspan class="cls-21" x="60.56" y="0">c</tspan><tspan x="66.25" y="0">ean </tspan><tspan class="cls-22" x="88.76" y="0">b</tspan><tspan x="95.69" y="0">y tapping on all </tspan><tspan x="0" y="14.4">the t</tspan><tspan class="cls-21" x="25.61" y="14.4">r</tspan><tspan class="cls-23" x="30.36" y="14.4">ash, but </tspan><tspan class="cls-24" x="76.39" y="14.4">k</tspan><tspan x="82.79" y="14.4">eep </tspan><tspan class="cls-25" x="105.38" y="14.4">y</tspan><tspan class="cls-23" x="111.93" y="14.4">our hands o</tspan><tspan class="cls-21" x="176.19" y="14.4">f</tspan><tspan x="181.17" y="14.4">f the fish.</tspan></text><path class="cls-26" d="M306,278.33a23,23,0,0,0-8.68,3.52c-2.6,1.56-3,2.34-7.51,5.79-4,3-5.95,4.55-7.8,5.39-6.39,2.93-11.77,1.28-12,2.29s5.36,4.42,12,4c7.38-.46,8.57-5,15.61-4.56a44.75,44.75,0,0,1,9.78,2c1.11.36,2,.7,2.67,1h0c5,2,6.29,2,6.29,2a8.06,8.06,0,0,0,5-1.63c3.33-2.86,3-8.56,1.28-12.13C319.8,280,312,277.47,306,278.33Z"/><path class="cls-27" d="M270.62,295.14c-.22,2.52-5.58,4.28-7.28,3.32a1.35,1.35,0,0,1-.65-1.64c.74-1.64,6-1.18,6.08-2s-5.46-1.59-5.43-3a1,1,0,0,1,.65-.77C265.7,290.29,270.83,292.59,270.62,295.14Z"/><path class="cls-28" d="M291,286.7c.85,1.07,7.8-8.72,17.45-7.8,6.08.58,9.79,5.06,10.09,4.56.43-.69-6.05-10.74-14.6-10S290.16,285.65,291,286.7Z"/><path class="cls-28" d="M297.39,297a5.16,5.16,0,0,0,.43,3.09c4,1.45,5.29,1.3,5.59.73.43-.86-1.51-2.38-1.18-4.61.27-1.86,1.87-2.56,1.61-3.15s-2.75-.38-4.51,1A4.81,4.81,0,0,0,297.39,297Z"/><path class="cls-8" d="M312.36,289.5c0,.29.7.47,1.21.47s1.16-.12,1.22-.47-.28-.5-.36-.56a1.1,1.1,0,0,0-.78-.21,1.48,1.48,0,0,0-.89.3C312.55,289.17,312.34,289.33,312.36,289.5Z"/><path class="cls-8" d="M321,286.26c0,.43.17,1.13.43,1.15s.51-.49.52-.92c0-.06,0-.14,0-.32a2.93,2.93,0,0,0-.11-.64c-.1-.24-.34-.51-.52-.46S321,285.83,321,286.26Z"/><path class="cls-29" d="M339.48,319.69a23.36,23.36,0,0,1,8.68,3.52c2.6,1.57,3,2.35,7.51,5.8,4,3,5.95,4.55,7.8,5.39,6.38,2.92,11.77,1.28,12,2.29s-5.36,4.42-12,4c-7.38-.46-8.57-5-15.61-4.56a44,44,0,0,0-9.78,2c-1.12.36-2,.7-2.67.95h0c-5,2-6.29,2-6.29,2a8,8,0,0,1-5-1.63c-3.33-2.87-3-8.56-1.28-12.13C325.63,321.37,333.49,318.84,339.48,319.69Z"/><path class="cls-27" d="M374.82,336.51c.21,2.52,5.58,4.28,7.28,3.32a1.37,1.37,0,0,0,.65-1.64c-.74-1.64-6-1.18-6.08-2s5.46-1.59,5.43-3a1,1,0,0,0-.65-.77C379.74,331.66,374.61,334,374.82,336.51Z"/><path class="cls-28" d="M354.44,328.07c-.85,1.06-7.8-8.72-17.45-7.8-6.08.58-9.79,5.06-10.1,4.56-.42-.7,6.06-10.74,14.6-10S355.28,327,354.44,328.07Z"/><path class="cls-28" d="M348,338.35a5,5,0,0,1-.43,3.09c-4,1.44-5.29,1.29-5.58.72-.44-.85,1.51-2.37,1.18-4.6-.27-1.86-1.87-2.56-1.61-3.15s2.75-.39,4.51,1A4.86,4.86,0,0,1,348,338.35Z"/><path class="cls-8" d="M333.08,330.87c0,.29-.7.46-1.21.46s-1.16-.11-1.22-.46.28-.5.36-.56a1.16,1.16,0,0,1,.77-.22,1.58,1.58,0,0,1,.9.3C332.88,330.54,333.1,330.7,333.08,330.87Z"/><path class="cls-8" d="M324.41,327.63c0,.43-.17,1.12-.43,1.15s-.52-.49-.52-.92c0-.06,0-.15,0-.32a2.93,2.93,0,0,1,.11-.64c.09-.24.34-.51.52-.47S324.44,327.2,324.41,327.63Z"/><path class="cls-30" d="M301.55,348.28a29.57,29.57,0,0,0-10.07,3.52c-3,1.57-3.47,2.35-8.71,5.8-4.6,3-6.9,4.55-9,5.39-7.4,2.92-13.65,1.28-13.92,2.29s6.22,4.42,13.95,4c8.56-.46,9.95-5,18.11-4.56a58.3,58.3,0,0,1,11.34,2c1.3.36,2.36.7,3.1.95h0c5.78,2,7.29,2,7.29,2a10.44,10.44,0,0,0,5.85-1.63c3.86-2.87,3.47-8.56,1.49-12.13C317.6,350,308.49,347.43,301.55,348.28Z"/><path class="cls-27" d="M260.55,365.1c-.24,2.52-6.46,4.28-8.44,3.32a1.29,1.29,0,0,1-.75-1.64c.85-1.64,6.91-1.18,7.05-2s-6.33-1.59-6.3-3c0-.35.41-.64.76-.77C254.85,360.25,260.8,362.55,260.55,365.1Z"/><path class="cls-28" d="M284.65,356.66c1,1.06,9.05-8.72,20.25-7.8,7,.58,11.35,5.06,11.7,4.56.5-.7-7-10.74-16.93-10S283.68,355.61,284.65,356.66Z"/><path class="cls-28" d="M291.61,366.94a4.45,4.45,0,0,0,.5,3.09c4.64,1.44,6.14,1.29,6.48.72.5-.85-1.75-2.37-1.37-4.6.31-1.86,2.17-2.56,1.86-3.15s-3.18-.39-5.22,1A4.9,4.9,0,0,0,291.61,366.94Z"/><path class="cls-8" d="M309,359.46c0,.29.81.46,1.41.46s1.34-.11,1.4-.46-.32-.5-.41-.56a1.54,1.54,0,0,0-.9-.22,2,2,0,0,0-1,.3C309.19,359.13,309,359.29,309,359.46Z"/><path class="cls-8" d="M319,356.22c0,.43.2,1.12.5,1.15s.6-.49.61-.92c0-.06,0-.15,0-.32a2.3,2.3,0,0,0-.12-.64c-.11-.24-.4-.51-.61-.47S319,355.79,319,356.22Z"/><path class="cls-31" d="M341.84,382.64a24.82,24.82,0,0,1,8.68,3.2c2.6,1.43,3,2.14,7.51,5.29,4,2.75,6,4.13,7.8,4.9,6.38,2.66,11.77,1.17,12,2.08s-5.37,4-12,3.66c-7.38-.42-8.57-4.55-15.61-4.15a47.29,47.29,0,0,0-9.78,1.82c-1.12.32-2,.64-2.67.86h0c-5,1.82-6.29,1.85-6.29,1.85a8.64,8.64,0,0,1-5-1.48c-3.33-2.61-3-7.8-1.29-11.05C328,384.16,335.85,381.86,341.84,382.64Z"/><path class="cls-27" d="M377.18,398c.21,2.3,5.58,3.9,7.28,3a1.2,1.2,0,0,0,.65-1.5c-.74-1.49-6-1.07-6.08-1.8s5.46-1.45,5.43-2.75c0-.32-.36-.59-.65-.71C382.1,393.54,377,395.63,377.18,398Z"/><path class="cls-28" d="M356.8,390.26c-.86,1-7.8-7.93-17.46-7.1-6.07.53-9.78,4.61-10.09,4.16-.42-.64,6.06-9.78,14.6-9.08S357.64,389.31,356.8,390.26Z"/><path class="cls-28" d="M350.4,399.63a4.21,4.21,0,0,1-.43,2.81c-4,1.32-5.29,1.18-5.58.66-.44-.77,1.51-2.16,1.18-4.19-.27-1.7-1.87-2.33-1.61-2.87s2.75-.35,4.51.93A4.44,4.44,0,0,1,350.4,399.63Z"/><path class="cls-8" d="M335.44,392.81c0,.27-.7.43-1.21.43s-1.16-.11-1.22-.43.28-.45.36-.5a1.25,1.25,0,0,1,.77-.2,1.64,1.64,0,0,1,.9.27C335.24,392.52,335.46,392.66,335.44,392.81Z"/><path class="cls-8" d="M326.77,389.86c0,.4-.17,1-.43,1.05s-.52-.45-.52-.83a1.94,1.94,0,0,1,0-.29,2,2,0,0,1,.11-.59c.09-.22.34-.47.52-.42S326.8,389.47,326.77,389.86Z"/><path class="cls-32" d="M492.51,303.3c.3,9.41,1.08,12.32-1,13.87-1.45,1.1-2.44-.05-7.15-.1-6.91-.06-8.69,2.32-14.17,1.18-1.81-.38-4.18-.9-5-2.79a4.46,4.46,0,0,1,1.08-5,4.93,4.93,0,0,1,2.49-.84c4.48-.87,7.56-1.27,7.56-1.27,3.87-.5,4-.3,4.42-.67,3.25-2.87-4.59-13.92-1.18-17.12.7-.65,2.08-.79,4.84-1.06,3.05-.3,4.85-.48,6.17.29C492.76,291.1,492.23,294.25,492.51,303.3Z"/><path class="cls-32" d="M484.67,306.73a54.1,54.1,0,0,0,0-8.93,52.94,52.94,0,0,0-1.12-7.35l.83-.93"/><line class="cls-32" x1="471.59" y1="309.14" x2="472.18" y2="311.56"/><line class="cls-32" x1="474.06" y1="308.72" x2="474.8" y2="311.26"/><line class="cls-32" x1="476.3" y1="308.37" x2="477.19" y2="311.05"/><line class="cls-32" x1="479.13" y1="308.05" x2="480.08" y2="310.69"/><line class="cls-32" x1="481.35" y1="306.73" x2="483.55" y2="308.54"/><line class="cls-32" x1="481.35" y1="303.25" x2="484.91" y2="303.7"/><line class="cls-32" x1="480.32" y1="300.03" x2="484.91" y2="300.03"/><line class="cls-32" x1="479.44" y1="297.23" x2="484.46" y2="296.66"/><path class="cls-32" d="M481.66,297.59c-.45-.65-2-.74-3-.34-1.65.63-2.31,2.6-1.58,3.19s2.19.09,3.13-.47S482.15,298.31,481.66,297.59Z"/><path class="cls-32" d="M482,297.18c.09-.68,2-1.4,3.56-1.07,2,.45,2.74,2.61,2,3.08-.36.24-1.13,0-2.16-.23C484.65,298.77,481.84,298,482,297.18Z"/><path class="cls-32" d="M481.57,297.56s1.7,5.74-1.44,6.21"/><path class="cls-32" d="M482,297.54s2.7,7.38,4.21,5.36"/><path class="cls-32" d="M467.82,325.17c.35,1.11,7.39,1.59,11.53-1.94,2.51-2.13,3.33-5.21,5.74-5.24,1.11,0,1.4.63,3.82,1,1.44.2,3,.43,3.65-.39s.11-2.16-.28-2.22c-.24,0-.36.45-.75.81-1.08,1-3.34.27-3.72.16C483.51,316.1,467.25,323.37,467.82,325.17Z"/><ellipse class="cls-33" cx="483.52" cy="382.37" rx="12.39" ry="12.29"/><ellipse class="cls-33" cx="530.2" cy="382.37" rx="12.25" ry="12.43" transform="translate(-55.59 672.48) rotate(-62.14)"/><path class="cls-13" d="M483.52,382.37c0,.56,3.52.65,9.77,2.48,4.86,1.42,6.71,2.54,8.89,1.51,1.48-.71,3-2.34,2.79-4-.19-1.9-2.4-3.16-4.06-3.53-2.47-.55-3.82.83-7.37,2C487.8,382.74,483.56,381.75,483.52,382.37Z"/><path class="cls-34" d="M490.24,354.76s10.41,28.21,10.16,28"/><path class="cls-13" d="M500.58,354.11c0,.6-1.17,1.2-2.12,1.45-1.83.46-2.76-.56-4.57-.65-4.31-.21-6.48,2.6-8.13,1.4a3.48,3.48,0,0,1-1-2.64,3.53,3.53,0,0,1,1-2.65c1.41-1,3.22.75,8.13,1.41a22.72,22.72,0,0,1,4.24.37C498.93,353,500.54,353.43,500.58,354.11Z"/><line class="cls-34" x1="483.52" y1="382.37" x2="493.79" y2="364.41"/><polyline class="cls-32" points="524.6 345.97 529.96 382.72 542.38 360.31"/><path class="cls-33" d="M516.32,338.56c5.67,2.39,8.85,5.6,8.28,7.41-.48,1.55-3.77,2.23-7.47,2.12"/><line class="cls-32" x1="498.35" y1="382.37" x2="527.51" y2="365.93"/><line class="cls-32" x1="496.76" y1="372.51" x2="526.09" y2="356.13"/><path class="cls-32" d="M542.38,360.31l-15.5,1.31q-.9-6.25-1.82-12.51h17.32Z"/><path class="cls-32" d="M484,382.14l-6.06,10.71L484,382.14l-11.43,5.65L484,382.14l-12.75-1.55L484,382.14,474.46,374l9.53,8.14-3-11.59,3,11.59q2.17-5.29,4.36-10.6-2.18,5.31-4.36,10.6l9.72-5.53L484,382.14,495,383.81,484,382.14l7.83,8.25L484,382.14l1.29,11.71Z"/><path class="cls-32" d="M530.73,382.17l-2.55,12.1,2.55-12.1-9.53,9,9.53-9-13.18,2.62,13.18-2.62-12.11-4.65,12.11,4.65-6.73-10,6.73,10,.9-11.45-.9,11.45,7.87-8.37-7.87,8.37,11.52-2-11.52,2,10.46,5.31-10.46-5.31,5.08,10.68Z"/><ellipse class="cls-35" cx="426.23" cy="324.03" rx="5.31" ry="5.38"/><ellipse class="cls-35" cx="426.23" cy="336.28" rx="5.31" ry="5.38"/><ellipse class="cls-35" cx="439.59" cy="324.03" rx="5.31" ry="5.38"/><ellipse class="cls-35" cx="439.59" cy="336.28" rx="5.31" ry="5.38"/><ellipse class="cls-35" cx="426.23" cy="348.53" rx="5.31" ry="5.38"/><ellipse class="cls-35" cx="439.59" cy="348.53" rx="5.31" ry="5.38"/><path class="cls-32" d="M445.77,333.79a7.41,7.41,0,0,1,0,4.53c-.76,2.34-2.26,2.63-2.16,4.16.08,1.23,1.05,1.27,1.87,3.06a7.1,7.1,0,0,1,.31,5.22,6.7,6.7,0,0,1-3.47,3.78,6.8,6.8,0,0,1-5.42-.15c-2.06-.94-2-2.22-3.45-2.38-1.84-.22-2.35,1.86-5.06,2.67-.28.09-3.58,1-6.08-1a6.64,6.64,0,0,1-2.35-5.8c.36-3,3-4,2.49-6.18-.3-1.3-1.31-1.09-2.05-2.82a7,7,0,0,1,.37-5.88c.93-1.69,2-1.72,2.05-2.82.08-1.52-1.9-1.83-2.79-4a6.5,6.5,0,0,1,.74-5.8,7,7,0,0,1,5-2.9c3.09-.29,3.63,1.94,6.81,2,3.47.06,4.18-2.57,7.57-2.17a7.08,7.08,0,0,1,4.83,2.85,6.68,6.68,0,0,1,1.1,4.53c-.41,2.92-2.76,3.55-2.49,5.58C443.77,331.76,445,331.68,445.77,333.79Z"/><ellipse class="cls-35" cx="435.78" cy="381.15" rx="8.47" ry="2.22"/><path class="cls-35" d="M442.7,380l3,3.26v28.28c-.82.9-1.64,1.8-2.45,2.71l-14.07.07-3.29-2.89V383.3l2.9-3.26"/><text class="cls-36" transform="matrix(0.47, 0.92, -0.87, 0.5, 426.71, 387.64)">BEER</text><path class="cls-37" d="M455.62,247.41l11.64,3.81-29.57,52.32h0l-26.54-23.28,7.41-5.48h0l17.71,13.83h0Z"/><path class="cls-7" d="M695.92,262.47c-2.55-.8,29-56.71,14.92-118.27-2.15-9.4-14.52-59-57.09-85.63-46-28.72-105.69-17.1-105.61-20.93,0-1.82,13.5-4.48,23.43-5,.85,0,2.25-.13,4.1-.2,66.86-2.73,101.63,25.7,101.63,25.7,36.65,29,42.33,73.78,43.76,85,3.06,24.09-1.23,43.9-5.63,64.21C708.72,238.26,697.59,263,695.92,262.47Z"/><path class="cls-38" d="M369.68,279.47l13.9,11.64L374,299l-13.41-12.57L346.2,300.89l-9.59-8.38L352,279l-14.38-11.17,7.67-7L359.62,272l16.77-15.83,9.59,7.45Z"/><path class="cls-17" d="M718.14,114l-5.58,15.54a14.86,14.86,0,0,1-2.3-.28,18.8,18.8,0,0,1-3-.79,10.44,10.44,0,0,1-2.39-1.18,3.93,3.93,0,0,1-1.42-1.65,4.9,4.9,0,0,1-.35-2.41,13.52,13.52,0,0,1,.85-3.53l13.7-38.12a4.59,4.59,0,0,1,1.66-2.38,5.39,5.39,0,0,1,2.48-.8,19.84,19.84,0,0,1,5.37.34,38,38,0,0,1,6.07,1.68q8.49,3,11.11,9.29t-.25,14.26a18.64,18.64,0,0,1-5.06,7.87,17.42,17.42,0,0,1-6.66,3.82q.8,4.75,1.7,9a53.2,53.2,0,0,1,1.11,7.53,8.49,8.49,0,0,1-3.8,3.52,5.63,5.63,0,0,1-4.2.18,6.56,6.56,0,0,1-2.19-1.25,5.62,5.62,0,0,1-1.32-1.75,8.64,8.64,0,0,1-.71-2.27,26.71,26.71,0,0,1-.36-2.68l-1.24-12.79Zm7.75-9.37a4.89,4.89,0,0,0,4.26-.25,7.4,7.4,0,0,0,3-4.17,6.91,6.91,0,0,0,.17-5.19c-.63-1.42-2-2.51-4.21-3.3a11.85,11.85,0,0,0-1.5-.45c-.39-.08-.83-.14-1.32-.2L722,103.17Z"/><path class="cls-17" d="M667.83,70.67a9.44,9.44,0,0,1,3.08-5.24,5.3,5.3,0,0,1,4.85-.94L696.62,70a11.35,11.35,0,0,1,.15,2.62,13.92,13.92,0,0,1-.49,3.25c-.55,2.11-1.3,3.51-2.23,4.21a3.44,3.44,0,0,1-3.1.6l-13.34-3.54-2.05,7.73,14.22,3.78a11.61,11.61,0,0,1,.16,2.58,13.77,13.77,0,0,1-.47,3.21q-.84,3.15-2.21,4.22a3.38,3.38,0,0,1-3.07.61l-11.63-3.09-2.32,8.73,16.25,4.31a11.35,11.35,0,0,1,.15,2.62,13.92,13.92,0,0,1-.49,3.25,7.77,7.77,0,0,1-2.24,4.25,3.38,3.38,0,0,1-3.11.64l-18.47-4.89a5.32,5.32,0,0,1-3.75-3.22,9.49,9.49,0,0,1-.08-6.07Z"/></svg>