<svg id="Layer_1" data-name="Layer 1" xmlns="http://www.w3.org/2000/svg" xmlns:xlink="http://www.w3.org/1999/xlink" width="297mm" height="210mm" viewBox="0 0 841.89 595.28"><defs><style>.cls-1{fill:url(#linear-gradient);}.cls-2{fill:url(#linear-gradient-2);}.cls-3{fill:#fff057;}.cls-16,.cls-4{fill:#f0a557;}.cls-5{fill:url(#linear-gradient-3);}.cls-6{fill:#ea8dba;}.cls-7{fill:#eb8fbc;}.cls-8{fill:#eea5ca;}.cls-18,.cls-9{fill:#fff;}.cls-10{fill:url(#linear-gradient-4);}.cls-11{fill:url(#linear-gradient-5);}.cls-12{fill:url(#linear-gradient-6);}.cls-13{fill:#280900;}.cls-14{fill:none;stroke:#fff;stroke-miterlimit:10;stroke-width:2px;}.cls-15{fill:#a42c2e;}.cls-15,.cls-16,.cls-17,.cls-18{opacity:0.3;}.cls-17{fill:#e14894;}.cls-19{fill:#1d4c9e;}</style><linearGradient id="linear-gradient" x1="418.7" y1="25.88" x2="424.37" y2="473.3" gradientUnits="userSpaceOnUse"><stop offset="0" stop-color="#7acacb"/><stop offset="0.18" stop-color="#73c4ca"/><stop offset="0.44" stop-color="#60b4c8"/><stop offset="0.74" stop-color="#429ac5"/><stop offset="0.96" stop-color="#2783c2"/></linearGradient><linearGradient id="linear-gradient-2" x1="419.17" y1="413.92" x2="421.66" y2="610.61" gradientUnits="userSpaceOnUse"><stop offset="0.51" stop-color="#613617"/><stop offset="0.6" stop-color="#673d1d"/><stop offset="0.72" stop-color="#79502f"/><stop offset="0.87" stop-color="#956e4d"/><stop offset="1" stop-color="#b38f6c"/></linearGradient><linearGradient id="linear-gradient-3" x1="523.95" y1="94.1" x2="710.09" y2="493.13" gradientUnits="userSpaceOnUse"><stop offset="0" stop-color="#e15842"/><stop offset="0.13" stop-color="#e25f43"/><stop offset="0.31" stop-color="#e67246"/><stop offset="0.52" stop-color="#ec914a"/><stop offset="0.75" stop-color="#f5bc50"/><stop offset="1" stop-color="#fff057"/></linearGradient><linearGradient id="linear-gradient-4" x1="153.57" y1="267.38" x2="162.75" y2="537.37" gradientUnits="userSpaceOnUse"><stop offset="0.38" stop-color="#3d6803"/><stop offset="0.48" stop-color="#396103"/><stop offset="0.61" stop-color="#2e4e02"/><stop offset="0.77" stop-color="#1c2f01"/><stop offset="0.94" stop-color="#030500"/><stop offset="0.96"/></linearGradient><linearGradient id="linear-gradient-5" x1="75.33" y1="275.95" x2="50.96" y2="539.59" gradientUnits="userSpaceOnUse"><stop offset="0.38" stop-color="#5d8b37"/><stop offset="0.45" stop-color="#588434"/><stop offset="0.55" stop-color="#4c712d"/><stop offset="0.67" stop-color="#375221"/><stop offset="0.81" stop-color="#1b2810"/><stop offset="0.91"/></linearGradient><linearGradient id="linear-gradient-6" x1="110.98" y1="410.34" x2="107.76" y2="513.22" gradientUnits="userSpaceOnUse"><stop offset="0" stop-color="#81be5e"/><stop offset="0.14" stop-color="#73a954"/><stop offset="0.44" stop-color="#4e7339"/><stop offset="0.87" stop-color="#131c0e"/><stop offset="1"/></linearGradient></defs><rect class="cls-1" width="843.23" height="511.27"/><rect class="cls-2" x="-0.71" y="511.8" width="843.32" height="85.06"/><rect class="cls-3" x="294.9" y="219.51" width="241.86" height="88.37" rx="22.05"/><path class="cls-4" d="M337.22,247.52v-3.3H344v12h-6.75a7.57,7.57,0,0,0-1.88-4.36,5.16,5.16,0,0,0-3.79-1.46,4.36,4.36,0,0,0-2.79.92,2.86,2.86,0,0,0-1.16,2.32,3.28,3.28,0,0,0,.74,2.14,6.16,6.16,0,0,0,1.9,1.51q1.15.63,3.48,1.65l1.6.69a21.92,21.92,0,0,1,7.93,5.32,11.22,11.22,0,0,1,2.67,7.65q0,5.46-3.13,8.63a11.34,11.34,0,0,1-8.44,3.18,9.43,9.43,0,0,1-8-3.87V284h-6.75v-13.5h6.75a8.8,8.8,0,0,0,1.8,5.34,5.44,5.44,0,0,0,4.31,1.83,4.2,4.2,0,0,0,3.08-1.24,4.1,4.1,0,0,0,1.25-3,4.63,4.63,0,0,0-1.44-3.28,15.64,15.64,0,0,0-4.89-3q-5.88-2.58-8.53-5.57a10,10,0,0,1-2.65-6.85,11.21,11.21,0,0,1,1.4-5.54,10.29,10.29,0,0,1,3.86-3.94,10.44,10.44,0,0,1,5.37-1.44,9.38,9.38,0,0,1,4.22.95A8.16,8.16,0,0,1,337.22,247.52Z"/><path class="cls-4" d="M378.17,260.2V251H372v26.24h5.93V284H355.65v-6.75h6V251h-6v9.23H348.9v-16h36v16Z"/><path class="cls-4" d="M410.6,251l8.31,26.24h4.74V284H404.12v-6.75h5.09l-1.9-6.75H397l-2.11,6.75h5.3V284H382.63v-6.75h4.9L395.26,251H390v-6.75h26V251Zm-8.28,1.61-3.56,12h6.91Z"/><path class="cls-4" d="M461.68,255.06a10.62,10.62,0,0,1-1.7,6.12,12.14,12.14,0,0,1-5.16,4l6.41,12h5.14V284h-12.1l-9-17.38h-4.53v10.63h5V284H425v-6.75h5.45V251H425v-6.75h22.67q6.6,0,10.33,2.78A9.46,9.46,0,0,1,461.68,255.06Zm-10.81.45a4,4,0,0,0-1.45-3.4,6.26,6.26,0,0,0-4-1.14h-4.69v9.23h3.79Q450.88,260.2,450.87,255.51Z"/><path class="cls-4" d="M495.58,260.2V251h-6.17v26.24h5.94V284H473.07v-6.75h6V251h-6v9.23h-6.75v-16h36v16Z"/><rect class="cls-4" x="347.8" y="342.99" width="136.05" height="40.7" rx="16.28"/><path class="cls-3" d="M380.67,353.75V359h6.64v-5.27h-2.48v-4.13h11.65v4.13h-3v16h3v4.12H384.83v-4.12h2.48v-6.61h-6.64v6.61h2.55v4.12H371.5v-4.12h3v-16h-3v-4.13h11.72v4.13Z"/><path class="cls-3" d="M415.52,357.31v-3.56H408v5.57h6.07v4.09H408v6.37h7.52v-3.59h4.66v7.71H398.76v-4.12h2.94v-16h-2.94v-4.13h21.42v7.69Z"/><path class="cls-3" d="M431.93,353.75v16h7.17v-7.49h4.75V373.9H422.13v-4.12h3.46v-16h-3.46v-4.13h13.36v4.13Z"/><path class="cls-3" d="M467.44,357.34c0,2.64-.83,4.59-2.47,5.84s-4.22,1.88-7.7,1.88h-2.54v4.72h3.4v4.12h-12.8v-4.12h3.06v-16h-3.06v-4.13h11.81c3.47,0,6.06.63,7.75,1.89A6.8,6.8,0,0,1,467.44,357.34Zm-6.67,0a3.79,3.79,0,0,0-.61-2.31,2.89,2.89,0,0,0-1.77-1,13.23,13.23,0,0,0-2.67-.24h-1V361h1a9.36,9.36,0,0,0,3.12-.41,2.67,2.67,0,0,0,1.52-1.2A4.58,4.58,0,0,0,460.77,357.34Z"/><path class="cls-5" d="M670.43,130.45c18.22,29.77,22.3,62.67,24.89,83.56,3.49,28.08-.29,35.58,0,88.89.26,46.75.38,70.12,4.93,88.48,15.72,63.47,61.09,92.26,54.63,100-6.8,8.13-67-11.89-104-62.23-41.43-56.31-14.68-88.91-58.67-139.56-25.75-29.66-56-48-94.46-69.34-6.24-3.44-11.38-6.15-14.61-7.83,7.7,1,32.7,3.23,54.55-12.65,23.25-16.89,31.68-46.11,28.47-48.23-2.53-1.66-10.39,14.63-30,27.68-25.22,16.73-70.42,28.48-96,5.83-19-16.83-17.82-44.43-17.73-46,2.33-41.21,48.88-73.1,87.12-82.35C573.72,41.14,641,82.27,670.43,130.45Z"/><path class="cls-6" d="M838.92,510.88c-6,9.17-51.32-17.89-61.15-5.14-8.86,11.49,20.67,43,15.37,47.81-5.07,4.65-45.78-11.9-45.78-42.67,0-23.56,20.5-42.67,45.78-42.67C823.66,468.21,843.86,503.31,838.92,510.88Z"/><path class="cls-7" d="M695.92,263.69c-7.08,0,.66-118.51-55.95-169.69C617.24,73.45,589.3,62.89,589.3,62.89c-11.9-4.5-28.72-10.86-50.67-9.78-16.14.79-28.5,5.28-29.1,3.56-.74-2.15,17.81-10.82,26.43-14.23,35.13-13.88,98.93-17,141.34,16.89C755.38,121.72,703.67,263.73,695.92,263.69Z"/><path class="cls-8" d="M573.3,210.45s5.19,20.45-12.45,34.67c-12.68,10.23-54,36.48-40,28.1h0a9.44,9.44,0,0,0-3.42,2.24c-2.17,2.25-1.76,5.45-2.8,7.89-5.34,12.44,8,40.89,13.33,40.89s-2.3,1.78,15.74,0S574,306.46,574,306.46s15.5-17.78,15-27.56c-.94-16.7,9-29.5,10.12-40"/><ellipse class="cls-9" cx="513.39" cy="111.87" rx="27.61" ry="12.76"/><path class="cls-10" d="M203.42,511.27c-9.7-8.78-23.51-23.39-31.1-43.12C152.87,417.6,192.13,379.91,204.77,338c10.3-34.17,7.58-86.55-61.05-160.85,14.43,23.44,70.56,121.15,1.55,190.6-6.37,6.42-16.53,10.22-23.43,19.09-11.14,14.33-10.21,27.35-10.21,27.35l-6.51,27,4.65,42.76v27.38"/><path class="cls-11" d="M20.9,511.27C37.14,488.73,55.74,455,56.5,413.65c1-52.5-27.48-79.81-41.55-125.9-12.32-40.4-15.35-101,27-188.64C2.08,209.29,30.86,278.79,66.21,322.49c59.24,73.22,69.11,98.07,66.35,128.22-1.28,14-8,35.74-37.66,60.51"/><path class="cls-12" d="M166.47,511.27c-13.17-11.53-31.12-30.48-41.83-58.06C95.44,378,156.89,333.35,136.73,252.42c-15.58-62.52-62-74.95-57.64-129.21,2.49-30.95,19.84-54.91,33.47-69.88C88.2,76.27,59.72,111.05,60.5,153c1,53,47.68,63.56,53,119,5.9,61.62-48.44,83.67-47.41,157.1.49,35,13.29,63.47,24.17,82.23"/><ellipse class="cls-13" cx="507.55" cy="112.09" rx="10.14" ry="5.91"/><ellipse class="cls-14" cx="174.74" cy="71.82" rx="29.07" ry="30.1"/><ellipse class="cls-14" cx="193.64" cy="149.93" rx="11.27" ry="11.67"/><ellipse class="cls-14" cx="228.22" cy="107.44" rx="15.3" ry="15.85"/><circle class="cls-14" cx="782.2" cy="339.55" r="23.79"/><circle class="cls-14" cx="766.73" cy="277.83" r="9.23"/><circle class="cls-14" cx="738.43" cy="311.4" r="12.52"/><ellipse class="cls-14" cx="294.67" cy="399.88" rx="17.15" ry="16.72"/><ellipse class="cls-14" cx="250.17" cy="410.75" rx="6.65" ry="6.48"/><ellipse class="cls-14" cx="274.38" cy="430.64" rx="9.03" ry="8.8"/><path class="cls-15" d="M652.8,358.56c5.18,16.08,1.31,17.26,5.87,35.69,13.32,53.78,56,83.23,52.92,86.57-2.12,2.27-22.42-10.74-40.16-28.6-9.45-9.52-31.86-32.61-43.35-69.08-7.62-24.21-2.57-29.36-12.39-53.13-11.2-27.13-25.33-38.71-23.49-40.44C595.21,286.75,638.05,312.71,652.8,358.56Z"/><path class="cls-16" d="M695.43,281.5c-7.58,1.17-.46-122.74-79.74-183.65-48.22-37-107.21-34.49-106.16-41.18.93-5.87,46.5-9.81,88.09,8.83a147.12,147.12,0,0,1,56.13,44.72c9.17,12,15.9,24.83,22.84,43.77C699.41,216.27,700.93,280.65,695.43,281.5Z"/><path class="cls-17" d="M582.39,294.27c1.16,1.71-33.27,41.07-54.43,30-17.74-9.31-14.35-47.92-10.53-48.78,3.24-.73,5.14,26.05,22.15,32.67C558.28,315.4,581.47,292.91,582.39,294.27Z"/><path class="cls-18" d="M695.92,263.69c-2.55-.8,29-56.71,14.92-118.26-2.15-9.4-14.52-59.05-57.09-85.63-46-28.72-105.69-17.11-105.61-20.94,0-1.81,13.5-4.48,23.43-5,.85-.05,2.25-.13,4.1-.21,66.86-2.73,101.63,25.7,101.63,25.7,36.65,29,42.33,73.78,43.76,85,3.06,24.09-1.23,43.9-5.63,64.21C708.72,239.49,697.59,264.21,695.92,263.69Z"/><path class="cls-17" d="M830.73,513.65c.63-.95-5.61-6.86-12.79-11.75-16.3-11.11-43.48-21.11-50-13-8.18,10.16,17.36,47,18.08,48.52,0-.11-14.28-23.2-8.24-31.69,5.45-7.67,26.37-1.94,31.07-.66C821.65,508.59,830,514.69,830.73,513.65Z"/><path class="cls-19" d="M119.81,90.87a8.71,8.71,0,0,0-5.9,6.41Q112.76,102,115.25,109t6.7,9.83a9.42,9.42,0,0,0,8.91,1.1,9.9,9.9,0,0,0,4-2.43,27.9,27.9,0,0,0,2.62-3.22,8.56,8.56,0,0,1,2.61,2.12,11.32,11.32,0,0,1,1.91,3.47,7.5,7.5,0,0,1-.78,6.63q-2,3.31-7.7,5.37a20.8,20.8,0,0,1-8.31,1.25,17.76,17.76,0,0,1-8-2.46,24.72,24.72,0,0,1-7.19-6.55,41,41,0,0,1-5.77-11.13,39.76,39.76,0,0,1-2.49-11.68,26.61,26.61,0,0,1,1.21-9.61,18.44,18.44,0,0,1,4.32-7.22,18.1,18.1,0,0,1,6.9-4.4q5.67-2,9.64-.72a8,8,0,0,1,5.35,5.12,8.26,8.26,0,0,1,.51,3.93,8.51,8.51,0,0,1-1,3.09,19.46,19.46,0,0,0-4.25-1.12A9.45,9.45,0,0,0,119.81,90.87Z"/><path class="cls-19" d="M166.76,120.08a5.29,5.29,0,0,1-4.86-.92,9.39,9.39,0,0,1-3.09-5.22L147.27,71c.43-.23,1.13-.58,2.08-1a16.76,16.76,0,0,1,2.83-1.07,10.79,10.79,0,0,1,2.64-.4A4.28,4.28,0,0,1,157,69a4.76,4.76,0,0,1,1.7,1.77A13.4,13.4,0,0,1,160,74.18l8.82,32.8,14.47-3.89a14.28,14.28,0,0,1,1.48,2.23,13.83,13.83,0,0,1,1.23,3.1q.9,3.31.19,5a3.52,3.52,0,0,1-2.47,2.13Z"/><path class="cls-19" d="M195.69,67.12a9.47,9.47,0,0,1,.45-6.06,5.27,5.27,0,0,1,3.93-3l21.16-4.28a11.84,11.84,0,0,1,1.3,2.29,14.51,14.51,0,0,1,1,3.13c.43,2.14.38,3.72-.14,4.77a3.45,3.45,0,0,1-2.52,1.91l-13.53,2.73,1.59,7.84,14.43-2.91a11.92,11.92,0,0,1,1.28,2.24,13,13,0,0,1,1,3.09c.44,2.13.4,3.72-.1,4.76a3.35,3.35,0,0,1-2.49,1.9l-11.79,2.39L213,96.78l16.48-3.33a11.43,11.43,0,0,1,1.3,2.28,14.51,14.51,0,0,1,1,3.13q.65,3.21-.13,4.81a3.39,3.39,0,0,1-2.51,2l-18.72,3.79a5.3,5.3,0,0,1-4.79-1.23,9.46,9.46,0,0,1-2.76-5.41Z"/><path class="cls-19" d="M253,50.11A11.84,11.84,0,0,1,256.1,48a14.17,14.17,0,0,1,4.39-1.41,12.81,12.81,0,0,1,5.91.42,5.91,5.91,0,0,1,3.76,3.41q1.8,4.28,4,10t4.45,11.74q2.26,6.06,4.42,12c1.45,3.94,2.71,7.42,3.81,10.45a5.49,5.49,0,0,1-2.06,2.25A8.72,8.72,0,0,1,281.18,98a8.58,8.58,0,0,1-2.67,0,4.13,4.13,0,0,1-1.89-.77,5,5,0,0,1-1.36-1.63,17.77,17.77,0,0,1-1.11-2.45l-2-5.7-11.73,1.67c-.1,1.75-.19,3.56-.28,5.43s-.18,3.67-.28,5.42a15,15,0,0,1-1.81,1,8.71,8.71,0,0,1-2.38.64,7,7,0,0,1-5.11-.79,5.42,5.42,0,0,1-2.17-3.9,10.86,10.86,0,0,1-.08-2.42c.05-.82.12-1.79.18-2.9q.12-2.36.45-5.88c.21-2.35.46-4.89.73-7.62s.57-5.54.91-8.42.65-5.61.95-8.18.57-4.84.83-6.85S252.84,51.18,253,50.11ZM262.33,60q-.39,3.7-.9,8.25c-.34,3-.59,6.09-.77,9.19l8-1.15c-1-3-2.08-5.88-3.13-8.72s-2-5.37-2.84-7.63Z"/><path class="cls-19" d="M339.51,89.49A5.79,5.79,0,0,1,337,91.56a11.62,11.62,0,0,1-4.08,1A11,11,0,0,1,328.3,92q-2.22-.75-3.92-4.22l-8-16.74q-1.22-2.56-2.2-4.85T312,60.93l-.38.12c.45,3.07.82,6.2,1.13,9.39s.59,6.34.86,9.42l1.18,13.28a13.83,13.83,0,0,1-2.14.71,16.12,16.12,0,0,1-2.88.51,10.8,10.8,0,0,1-2.56,0,3.47,3.47,0,0,1-1.92-.87,5.17,5.17,0,0,1-1.29-2,12.68,12.68,0,0,1-.7-3.43L299.53,45.2a5.77,5.77,0,0,1,2.58-2.82,9.8,9.8,0,0,1,4-1.22,11.23,11.23,0,0,1,4.68.58c1.52.53,2.81,1.93,3.89,4.19l8,16.73q1.21,2.57,2.21,4.86t2.17,5.29l.32-.12q-.67-4.6-1.14-9.22t-.89-9.25l-1.23-13.88a14.43,14.43,0,0,1,2.14-.7,17.1,17.1,0,0,1,2.88-.52,6.44,6.44,0,0,1,4.48.94q1.62,1.2,2,5.4Z"/><path class="cls-19" d="M389.43,80.11a2.51,2.51,0,0,0,.72,1.94,2.71,2.71,0,0,0,1.89.53,5.52,5.52,0,0,0,1.25-.17,5.65,5.65,0,0,0,1.12-.37,7.32,7.32,0,0,1,.66,1.28,5,5,0,0,1,.31,1.71,4.71,4.71,0,0,1-1.05,3.32c-.75.87-2.08,1.33-4,1.39a7,7,0,0,1-5.52-2c-1.31-1.37-2-3.65-2.11-6.83L382,58.27a9.84,9.84,0,0,1,1.26-.39,8.7,8.7,0,0,1,1.74-.23,4.23,4.23,0,0,1,2.79.74c.67.53,1,1.68,1.08,3.44l.1,3.4,5.28-.16a10.92,10.92,0,0,1,.5,1.45,7.6,7.6,0,0,1,.28,1.93,4.45,4.45,0,0,1-.55,2.69,2,2,0,0,1-1.65.87l-3.66.1Z"/><path class="cls-19" d="M425.56,88.42a7.34,7.34,0,0,1-1.27.32,9.53,9.53,0,0,1-1.79.17,6.51,6.51,0,0,1-1.59-.15,2.36,2.36,0,0,1-1.2-.63,3.1,3.1,0,0,1-.75-1.29,7,7,0,0,1-.27-2.15l-.07-11.76a4.38,4.38,0,0,0-.85-3,2.7,2.7,0,0,0-2-.87,4.66,4.66,0,0,0-1.53.28,3.83,3.83,0,0,0-1.16.64l.1,18.55a6.37,6.37,0,0,1-1.26.32,9.64,9.64,0,0,1-1.8.17,6.51,6.51,0,0,1-1.59-.15,2.33,2.33,0,0,1-1.19-.63,3,3,0,0,1-.76-1.29,7,7,0,0,1-.27-2.14L406.09,54c.3-.08.73-.18,1.31-.3a8,8,0,0,1,1.75-.2,7.77,7.77,0,0,1,1.6.15,2.33,2.33,0,0,1,1.19.63,3.12,3.12,0,0,1,.75,1.29,7.38,7.38,0,0,1,.28,2.15l0,5.19a14.45,14.45,0,0,1,1.59-.62,7.58,7.58,0,0,1,2.35-.35,7.75,7.75,0,0,1,6.25,2.58q2.25,2.63,2.28,7.81Z"/><path class="cls-19" d="M447.37,89.62a11.05,11.05,0,0,1-4.4-1,9.68,9.68,0,0,1-3.49-2.7,12.42,12.42,0,0,1-2.29-4.44,20,20,0,0,1-.75-6.22,18.71,18.71,0,0,1,1-6,12.25,12.25,0,0,1,2.36-4.08,8.71,8.71,0,0,1,3.27-2.32,9.5,9.5,0,0,1,3.73-.7,8.83,8.83,0,0,1,3.87.93,9.21,9.21,0,0,1,3,2.39,10.7,10.7,0,0,1,1.9,3.59,13.74,13.74,0,0,1,.61,4.52,4.26,4.26,0,0,1-.82,2.74,3.49,3.49,0,0,1-2.16,1.17l-10,1.76A4.17,4.17,0,0,0,444.94,82a5.69,5.69,0,0,0,3.13.94,9.27,9.27,0,0,0,5.56-1.74,4.1,4.1,0,0,1,1.05,1.5,4.69,4.69,0,0,1,.41,2,4,4,0,0,1-1.77,3.52,7.56,7.56,0,0,1-2.92,1.16A15.64,15.64,0,0,1,447.37,89.62Zm-.72-20.85a3.26,3.26,0,0,0-1.68.39,3.75,3.75,0,0,0-1.17,1.07,5,5,0,0,0-.69,1.47,7.82,7.82,0,0,0-.3,1.66L449.73,72a4.37,4.37,0,0,0-.84-2.13A2.61,2.61,0,0,0,446.65,68.77Z"/><path class="cls-19" d="M514.89,52.66a15,15,0,0,1,2.33-.8,9.38,9.38,0,0,1,3.15-.3A9,9,0,0,1,524.84,53a4.47,4.47,0,0,1,2,3.32q.42,3.57.79,6.66c.24,2.07.48,4,.72,5.93s.46,3.77.68,5.62.42,3.81.6,5.84l.32,0c.69-3.45,1.31-6.75,1.88-9.9s1.11-6.23,1.62-9.27,1-6,1.54-9,1-6,1.54-9.06a8.55,8.55,0,0,1,5.3-1.37,6.61,6.61,0,0,1,4.06,1.72c1.1,1,1.55,2.6,1.37,4.77-.1,1.26-.35,3-.73,5.33s-.87,4.87-1.43,7.7-1.2,5.79-1.89,8.9-1.4,6.07-2.12,8.89-1.42,5.36-2.11,7.63A48.53,48.53,0,0,1,537.09,92a7.07,7.07,0,0,1-3.36,1.71,13.84,13.84,0,0,1-4.62.39,11.36,11.36,0,0,1-5.1-1.51,4.54,4.54,0,0,1-2.32-3.25c-.37-2.33-.76-5.1-1.15-8.3s-.8-6.71-1.22-10.54q-1.38,5.49-2.8,10.73c-.94,3.49-1.78,6.44-2.5,8.85a7,7,0,0,1-3.1,1.73,11.81,11.81,0,0,1-4.37.41,12.87,12.87,0,0,1-5.22-1.51,5.47,5.47,0,0,1-2.85-3.3,37.82,37.82,0,0,1-.89-4.69c-.28-2.07-.56-4.42-.82-7.06s-.52-5.49-.77-8.56-.45-6.14-.61-9.2-.29-6-.4-9-.15-5.58-.13-8a9.32,9.32,0,0,1,2.72-1.85,7.08,7.08,0,0,1,3.6-.65,5.89,5.89,0,0,1,3.95,1.76q1.49,1.55,1.6,4.92.31,8.82.51,14.71c.14,3.93.24,7.14.32,9.65s.12,4.45.13,5.84.06,2.48.12,3.29l.33,0q.87-3.37,1.64-6.25c.5-1.91,1-3.84,1.56-5.78s1.09-4,1.67-6.25S514.21,55.54,514.89,52.66Z"/><path class="cls-19" d="M575.52,47.8a12.06,12.06,0,0,1,3.57-1.14,14,14,0,0,1,4.61-.13,12.91,12.91,0,0,1,5.55,2,5.92,5.92,0,0,1,2.66,4.33c.36,3.06.71,6.62,1.06,10.66s.68,8.22,1,12.52.61,8.54.9,12.72.53,7.88.74,11.1a5.44,5.44,0,0,1-2.6,1.58,10.09,10.09,0,0,1-6.37-.51A4.32,4.32,0,0,1,585,99.71a5,5,0,0,1-.84-1.95,18.17,18.17,0,0,1-.39-2.66l-.33-6L571.75,87.4c-.59,1.65-1.18,3.36-1.79,5.13s-1.2,3.48-1.78,5.13a13.18,13.18,0,0,1-2,.45,8.62,8.62,0,0,1-2.47,0A7,7,0,0,1,559,95.88a5.45,5.45,0,0,1-1-4.35,12.1,12.1,0,0,1,.6-2.35c.29-.77.61-1.68,1-2.73q.78-2.24,2.08-5.52c.86-2.19,1.8-4.57,2.82-7.11s2.1-5.16,3.23-7.84l3.19-7.58c1-2.38,1.9-4.49,2.72-6.35S575.07,48.78,575.52,47.8Zm6.21,12.09q-1.41,3.45-3.17,7.67t-3.3,8.61l8,1.14q-.25-4.73-.57-9.24c-.21-3-.41-5.72-.6-8.12Z"/><path class="cls-19" d="M615.72,64.58a12.5,12.5,0,0,1-.33-2.69,14.61,14.61,0,0,1,.28-3.45q.65-3.3,2.06-4.51a3.6,3.6,0,0,1,3.2-.85l28,5.52a12.69,12.69,0,0,1,.33,2.7,14.1,14.1,0,0,1-.28,3.45c-.43,2.2-1.12,3.7-2.05,4.5a3.61,3.61,0,0,1-3.21.86l-7.12-1.41-7.7,39a13.87,13.87,0,0,1-2.32.07,18.86,18.86,0,0,1-3-.33,11,11,0,0,1-2.54-.81,4.21,4.21,0,0,1-1.68-1.43,4.76,4.76,0,0,1-.74-2.34,13.43,13.43,0,0,1,.31-3.62l6.47-32.73Z"/><path class="cls-19" d="M667.83,71.46a9.44,9.44,0,0,1,3.08-5.24,5.3,5.3,0,0,1,4.85-.94l20.86,5.54a11.35,11.35,0,0,1,.15,2.62,13.92,13.92,0,0,1-.49,3.25c-.55,2.11-1.3,3.51-2.23,4.21a3.44,3.44,0,0,1-3.1.6L677.61,78l-2.05,7.73,14.22,3.78a11.61,11.61,0,0,1,.16,2.58,13.77,13.77,0,0,1-.47,3.21q-.84,3.15-2.21,4.22a3.38,3.38,0,0,1-3.07.61L672.56,97l-2.32,8.73L686.49,110a11.35,11.35,0,0,1,.15,2.62,13.92,13.92,0,0,1-.49,3.25,7.77,7.77,0,0,1-2.24,4.25,3.41,3.41,0,0,1-3.11.65l-18.47-4.9a5.32,5.32,0,0,1-3.75-3.22,9.49,9.49,0,0,1-.08-6.07Z"/><path class="cls-19" d="M718.15,114.75l-5.59,15.54a14.86,14.86,0,0,1-2.3-.28,18.8,18.8,0,0,1-3-.79,10.44,10.44,0,0,1-2.39-1.18,3.93,3.93,0,0,1-1.42-1.65,4.9,4.9,0,0,1-.35-2.41,13.52,13.52,0,0,1,.85-3.53l13.7-38.12A4.59,4.59,0,0,1,719.36,80a5.39,5.39,0,0,1,2.48-.8,19.84,19.84,0,0,1,5.37.34,38,38,0,0,1,6.07,1.68q8.49,3,11.11,9.29t-.25,14.26a18.64,18.64,0,0,1-5.06,7.87,17.42,17.42,0,0,1-6.66,3.82q.8,4.75,1.7,9a53.2,53.2,0,0,1,1.11,7.53,8.44,8.44,0,0,1-3.8,3.52,5.63,5.63,0,0,1-4.2.18,6.56,6.56,0,0,1-2.19-1.25,5.62,5.62,0,0,1-1.32-1.75,8.64,8.64,0,0,1-.71-2.27,26.71,26.71,0,0,1-.36-2.68l-1.24-12.79Zm7.74-9.37a4.89,4.89,0,0,0,4.26-.25,7.4,7.4,0,0,0,3-4.17,6.91,6.91,0,0,0,.17-5.19c-.63-1.42-2-2.51-4.21-3.3a11.85,11.85,0,0,0-1.5-.45c-.39-.07-.83-.14-1.32-.2L722,104Z"/><path class="cls-19" d="M768.23,131.46q-2-2.46-3.48-4.71A16.22,16.22,0,0,1,762.6,122a13.75,13.75,0,0,1-.32-5.23,19.11,19.11,0,0,1,2.06-6.14q3.31-6.51,9.12-8.48t12.69,1.53a24.93,24.93,0,0,1,4.43,2.83,12.8,12.8,0,0,1,3,3.3,7.9,7.9,0,0,1,1.18,3.68,7.71,7.71,0,0,1-.9,3.93,8.62,8.62,0,0,1-2.44,3.06,10.19,10.19,0,0,1-2.91,1.56,13.56,13.56,0,0,0-2.49-3.63,15.07,15.07,0,0,0-4.31-3.21,7,7,0,0,0-4.34-1,3.32,3.32,0,0,0-2.45,1.8,2.78,2.78,0,0,0-.2,2.26,8.23,8.23,0,0,0,1.59,2.5l2.43,2.87a24.05,24.05,0,0,1,5.45,10.15c.75,3.37.09,7.11-2,11.19q-3.31,6.53-9.27,8.56t-13.53-1.82a22.75,22.75,0,0,1-4.69-3.11,14.75,14.75,0,0,1-3.17-3.73,9.14,9.14,0,0,1-1.28-4.12,8.32,8.32,0,0,1,1-4.29,7.88,7.88,0,0,1,2.92-3.29,9.42,9.42,0,0,1,3.39-1.31,17.09,17.09,0,0,0,2.51,4.94,12.4,12.4,0,0,0,4.53,3.85q2.87,1.45,4.61.9a4.12,4.12,0,0,0,2.53-2.09,3.29,3.29,0,0,0,.26-2.82,12.29,12.29,0,0,0-1.83-2.9Z"/></svg>